<?xml version="1.0" standalone="no"?>
<!DOCTYPE svg PUBLIC "-//W3C//DTD SVG 20010904//EN"
 "http://www.w3.org/TR/2001/REC-SVG-20010904/DTD/svg10.dtd">
<svg version="1.0" xmlns="http://www.w3.org/2000/svg"
 width="300.000000pt" height="141.000000pt" viewBox="0 0 300.000000 141.000000"
 preserveAspectRatio="xMidYMid meet">

<g transform="translate(0.000000,141.000000) scale(0.100000,-0.100000)"
fill="#000000" stroke="none">
<path d="M2664 1399 c-12 -4 -26 -22 -32 -39 -11 -30 -11 -31 15 -28 31 4 73
62 51 71 -7 2 -23 1 -34 -4z"/>
<path d="M100 1381 c-8 -16 -7 -20 7 -19 10 0 33 -2 51 -5 17 -2 32 0 32 6 0
5 7 4 15 -3 13 -11 15 -8 15 14 0 25 -2 26 -55 26 -43 0 -56 -4 -65 -19z"/>
<path d="M106 1308 c-3 -18 -8 -76 -11 -128 -6 -84 -11 -102 -45 -165 l-38
-70 -5 -202 c-3 -112 -3 -230 0 -263 5 -56 8 -62 37 -76 l31 -15 -28 21 c-27
22 -27 22 -27 148 0 70 5 188 11 262 10 125 13 139 45 193 30 52 34 68 39 155
9 141 9 142 49 142 l33 0 7 -112 c7 -101 10 -118 36 -158 59 -92 60 -99 60
-364 0 -185 -3 -247 -12 -253 -7 -4 -44 -13 -83 -20 l-70 -12 72 2 c117 4 113
-6 113 281 0 133 -5 257 -10 276 -5 20 -23 56 -39 81 -25 40 -30 62 -41 170
-6 68 -14 127 -16 131 -3 5 -27 8 -54 8 -48 0 -49 -1 -54 -32z"/>
<path d="M2828 1293 c-10 -3 -20 -14 -23 -26 -18 -74 -71 -353 -69 -358 2 -4
18 -4 36 0 27 5 34 13 38 36 5 27 9 30 45 30 36 0 40 -3 45 -30 4 -26 10 -30
41 -33 l36 -3 -41 188 c-22 103 -40 188 -40 189 -3 5 -55 10 -68 7z m29 -241
c-26 -5 -27 -3 -14 53 l11 50 11 -50 c10 -46 10 -50 -8 -53z"/>
<path d="M509 1271 c-23 -18 -24 -26 -27 -163 -3 -132 -2 -146 17 -169 25 -33
81 -43 127 -24 39 16 54 41 54 89 0 33 -2 36 -30 36 -25 0 -30 -4 -30 -24 0
-28 -22 -49 -47 -44 -16 3 -19 18 -23 113 -3 61 -2 118 3 128 14 30 50 17 62
-20 7 -27 14 -33 37 -33 26 0 28 3 28 40 0 60 -33 90 -98 90 -34 0 -57 -6 -73
-19z"/>
<path d="M740 1101 c0 -105 3 -191 8 -193 4 -2 51 -2 105 0 l97 4 0 29 c0 28
-1 28 -67 31 l-68 3 0 45 0 45 53 3 c50 3 52 4 52 33 0 29 -1 29 -55 29 l-55
0 0 45 0 45 70 0 70 0 0 35 0 35 -105 0 -105 0 0 -189z"/>
<path d="M1010 1102 l0 -190 25 -6 c14 -4 30 -4 35 -1 6 4 10 40 10 81 0 95
15 94 47 -3 20 -58 29 -72 49 -77 14 -4 29 -4 34 -1 5 3 -4 41 -19 83 l-29 78
24 27 c19 23 24 39 24 86 0 89 -17 105 -119 109 l-81 4 0 -190z m138 91 c5
-34 -15 -63 -43 -63 -23 0 -25 4 -25 46 0 45 0 45 33 42 24 -2 33 -8 35 -25z"/>
<path d="M1260 1283 c0 -27 74 -360 82 -370 6 -7 25 -13 44 -13 36 0 41 9 64
126 5 27 18 91 30 143 26 124 26 123 -12 119 l-32 -3 -25 -112 c-14 -62 -29
-113 -32 -113 -4 0 -17 52 -29 115 l-23 115 -33 0 c-19 0 -34 -3 -34 -7z"/>
<path d="M1555 1278 c-6 -17 -1 -365 5 -370 3 -2 49 -2 103 0 l97 4 0 29 c0
28 -1 28 -67 31 l-68 3 0 45 0 45 53 3 c50 3 52 4 52 33 0 29 -1 29 -55 29
l-55 0 0 45 0 45 70 0 70 0 0 35 0 35 -100 0 c-72 0 -102 -4 -105 -12z"/>
<path d="M1853 1278 c-32 -15 -43 -65 -43 -191 0 -128 13 -161 70 -177 45 -13
46 -13 85 5 36 18 55 51 55 95 0 28 -3 30 -35 30 -32 0 -35 -2 -35 -29 0 -34
-31 -51 -55 -31 -21 18 -21 222 0 240 24 20 55 3 55 -31 0 -27 3 -29 36 -29
l37 0 -6 41 c-8 60 -40 89 -96 88 -25 0 -56 -5 -68 -11z"/>
<path d="M2082 1098 l3 -192 95 3 c95 3 113 10 107 41 -2 11 -19 16 -70 18
-76 3 -83 10 -73 67 7 34 8 35 56 35 49 0 61 9 52 42 -3 13 -17 18 -55 20 -56
3 -65 15 -53 64 6 22 11 24 71 24 60 0 65 2 71 24 3 14 3 30 -1 35 -4 7 -47
11 -106 11 l-99 0 2 -192z"/>
<path d="M2350 1233 c0 -32 -3 -117 -6 -189 l-6 -131 26 -7 c15 -4 31 -4 36
-1 6 4 10 40 10 81 0 59 3 74 15 74 9 0 22 -25 36 -74 18 -63 26 -75 47 -81
14 -3 29 -2 33 2 5 5 -3 43 -17 86 l-26 77 26 31 c20 24 26 41 26 81 0 41 -5
54 -29 79 -27 27 -35 29 -100 29 l-71 0 0 -57z m128 -55 c-3 -40 -5 -43 -33
-43 -28 0 -30 3 -33 43 l-3 42 36 0 36 0 -3 -42z"/>
<path d="M2612 1098 l3 -193 33 -3 32 -3 0 195 0 196 -35 0 -35 0 2 -192z"/>
<path d="M918 1203 c7 -3 16 -2 19 1 4 3 -2 6 -13 5 -11 0 -14 -3 -6 -6z"/>
<path d="M1728 1203 c7 -3 16 -2 19 1 4 3 -2 6 -13 5 -11 0 -14 -3 -6 -6z"/>
<path d="M2248 1203 c7 -3 16 -2 19 1 4 3 -2 6 -13 5 -11 0 -14 -3 -6 -6z"/>
<path d="M821 1174 c0 -11 3 -14 6 -6 3 7 2 16 -1 19 -3 4 -6 -2 -5 -13z"/>
<path d="M1091 914 c0 -11 3 -14 6 -6 3 7 2 16 -1 19 -3 4 -6 -2 -5 -13z"/>
<path d="M109 827 c-87 -59 -48 -187 58 -187 61 0 93 32 93 94 0 25 -4 47 -10
51 -5 3 -7 12 -4 19 6 15 -51 46 -84 46 -10 0 -34 -10 -53 -23z"/>
<path d="M814 791 c-23 -10 -44 -26 -47 -36 -4 -9 -7 -75 -7 -147 l0 -130 35
-35 c32 -32 40 -35 73 -30 47 8 84 36 95 73 10 36 0 249 -13 275 -11 20 -60
49 -82 49 -7 0 -31 -9 -54 -19z m75 -65 c8 -9 11 -51 9 -121 -3 -113 -13 -137
-52 -122 -14 5 -16 24 -16 126 0 119 3 128 36 130 6 1 17 -5 23 -13z"/>
<path d="M842 540 c0 -14 2 -19 5 -12 2 6 2 18 0 25 -3 6 -5 1 -5 -13z"/>
<path d="M1083 799 c-60 -17 -73 -48 -73 -168 0 -158 24 -216 87 -213 16 1 49
2 76 3 l47 1 0 97 0 98 -41 7 c-22 4 -44 4 -50 1 -14 -9 -11 -65 4 -62 7 1 13
-12 15 -35 3 -33 0 -38 -23 -44 -39 -10 -45 6 -45 127 0 81 3 109 15 119 23
19 49 8 55 -25 4 -25 10 -31 38 -33 30 -3 32 -1 32 28 0 46 -25 86 -61 99 -36
12 -33 12 -76 0z"/>
<path d="M1348 798 c-11 -9 -27 -68 -47 -173 -18 -88 -34 -170 -36 -182 -5
-20 -1 -23 29 -23 32 0 36 3 42 35 6 33 9 35 45 35 36 0 39 -2 45 -35 6 -32 9
-35 40 -35 19 0 34 5 34 10 0 6 -16 81 -35 167 -19 86 -35 164 -35 174 0 33
-53 50 -82 27z m51 -215 c1 -17 -5 -23 -20 -23 -19 0 -21 4 -14 37 4 21 10 42
13 48 7 11 19 -27 21 -62z"/>
<path d="M480 611 l0 -191 29 0 c37 0 44 25 35 128 -8 94 0 89 51 -35 37 -91
38 -93 71 -93 l34 0 0 190 0 190 -30 0 -30 0 0 -100 c0 -55 -3 -100 -7 -100
-5 0 -26 44 -48 98 -38 92 -42 97 -73 100 l-32 3 0 -190z"/>
<path d="M1557 773 c-5 -29 0 -343 5 -349 5 -4 65 -7 126 -5 51 1 52 2 52 31
0 28 -1 29 -57 32 l-58 3 -1 35 c0 19 -1 90 -2 158 l-2 122 -29 0 c-23 0 -29
-5 -34 -27z"/>
<path d="M1231 534 c0 -11 3 -14 6 -6 3 7 2 16 -1 19 -3 4 -6 -2 -5 -13z"/>
<path d="M1378 473 c7 -3 16 -2 19 1 4 3 -2 6 -13 5 -11 0 -14 -3 -6 -6z"/>
<path d="M2570 225 c-7 -9 -8 -15 -2 -15 5 0 12 7 16 15 3 8 4 15 2 15 -2 0
-9 -7 -16 -15z"/>
<path d="M240 128 c0 -74 15 -102 51 -96 23 3 24 6 25 83 l1 80 -6 -75 c-5
-68 -8 -75 -28 -78 -22 -3 -23 0 -23 67 0 38 -4 73 -10 76 -6 4 -10 -18 -10
-57z"/>
<path d="M352 108 l2 -83 5 70 6 70 25 -64 c36 -93 50 -91 50 9 0 51 -4 79
-10 75 -5 -3 -10 -32 -10 -63 l-1 -57 -27 62 c-15 35 -30 63 -34 63 -5 0 -7
-37 -6 -82z"/>
<path d="M495 178 c-21 -59 -40 -188 -19 -134 9 22 64 22 64 -1 0 -9 3 -14 6
-10 3 3 -1 40 -11 81 -15 71 -29 93 -40 64z m32 -94 c-7 -7 -32 -8 -35 -1 -2
4 0 26 4 50 l7 42 14 -44 c7 -25 12 -46 10 -47z"/>
<path d="M644 176 c-3 -7 -4 -42 -2 -77 l3 -64 32 -3 c27 -3 35 1 45 23 8 19
9 28 0 37 -6 6 -8 24 -5 39 3 17 0 35 -7 44 -16 19 -59 20 -66 1z m50 -2 c21
-8 21 -50 0 -58 -29 -11 -34 -6 -34 29 0 35 5 40 34 29z m19 -86 c7 -21 -12
-48 -33 -48 -16 0 -20 7 -20 30 0 25 4 30 24 30 13 0 26 -6 29 -12z"/>
<path d="M759 168 c-7 -105 -6 -129 2 -133 5 -4 9 28 9 74 0 45 -2 81 -5 81
-3 0 -6 -10 -6 -22z"/>
<path d="M802 108 c1 -46 3 -66 5 -45 5 47 27 49 44 2 7 -19 16 -35 20 -35 5
0 1 16 -7 35 -13 32 -13 38 1 51 30 30 9 74 -35 74 l-30 0 2 -82z m62 50 c8
-14 7 -21 -6 -34 -24 -24 -48 -11 -48 26 0 26 3 31 21 28 12 -2 27 -11 33 -20z"/>
<path d="M907 168 c-3 -13 -2 -50 2 -83 7 -46 9 -51 10 -22 1 47 18 48 37 1
18 -44 29 -40 13 5 -9 24 -9 35 0 44 15 15 14 50 -1 65 -20 20 -55 14 -61 -10z
m61 -17 c4 -23 -11 -41 -35 -41 -8 0 -13 14 -13 36 0 31 3 35 23 32 14 -2 23
-11 25 -27z"/>
<path d="M1031 153 c-23 -84 -30 -117 -26 -121 3 -3 7 3 11 12 9 23 64 22 65
-1 0 -12 2 -13 6 -5 7 17 -27 152 -38 152 -4 0 -13 -17 -18 -37z m33 -39 c6
-26 4 -32 -13 -37 -23 -6 -25 1 -15 52 8 37 19 30 28 -15z"/>
<path d="M1231 130 c2 -82 12 -102 47 -98 27 3 27 4 28 83 l1 80 -6 -75 c-5
-66 -8 -75 -26 -75 -18 0 -20 8 -23 65 -2 36 -8 70 -13 75 -7 7 -9 -11 -8 -55z"/>
<path d="M1342 108 l2 -83 5 70 6 70 25 -64 c37 -94 50 -91 50 10 0 61 -3 80
-11 72 -6 -6 -10 -33 -8 -62 2 -28 2 -51 -1 -51 -3 0 -16 27 -29 60 -13 33
-28 60 -33 60 -4 0 -7 -37 -6 -82z"/>
<path d="M1487 183 c-3 -5 -10 -35 -17 -68 -7 -33 -14 -66 -17 -75 -3 -11 -1
-11 10 2 19 23 67 24 67 1 0 -9 3 -14 6 -10 3 3 -1 40 -11 81 -15 69 -26 89
-38 69z m32 -89 c1 -7 -8 -14 -19 -17 -22 -6 -25 7 -13 64 l6 33 13 -34 c7
-19 13 -40 13 -46z"/>
<path d="M1642 178 c-20 -20 -13 -46 18 -70 17 -12 30 -30 30 -40 0 -27 -30
-35 -47 -12 -14 19 -15 19 -11 -1 2 -15 11 -20 33 -20 44 0 46 37 6 79 -21 22
-29 38 -25 49 8 21 33 22 40 2 4 -8 10 -15 15 -15 6 0 5 9 -1 20 -12 22 -40
26 -58 8z"/>
<path d="M1742 178 c-12 -12 -17 -104 -6 -132 7 -19 45 -21 62 -4 7 7 12 37
12 68 0 57 -11 80 -40 80 -9 0 -21 -5 -28 -12z m48 -17 c12 -24 13 -91 1 -109
-5 -8 -17 -12 -27 -10 -15 2 -20 14 -22 57 -2 29 -1 60 2 67 8 20 34 17 46 -5z"/>
<path d="M1842 108 l1 -83 6 64 6 65 23 -57 c13 -31 28 -60 33 -63 5 -3 8 30
7 78 l-2 83 -5 -68 -6 -69 -24 62 c-13 33 -28 63 -33 66 -4 3 -7 -32 -6 -78z"/>
<path d="M1962 108 c1 -46 3 -66 5 -45 5 47 25 48 42 1 7 -19 15 -34 17 -31 2
2 -1 18 -7 36 -9 24 -9 35 0 44 15 15 14 50 -1 65 -7 7 -22 12 -35 12 -22 0
-23 -3 -21 -82z m56 43 c4 -23 -11 -41 -35 -41 -8 0 -13 14 -13 36 0 31 3 35
23 32 14 -2 23 -11 25 -27z"/>
<path d="M2063 110 c0 -47 2 -66 4 -42 2 23 2 61 0 85 -2 23 -4 4 -4 -43z"/>
<path d="M2110 175 c-16 -19 -4 -52 26 -71 13 -9 24 -25 24 -35 0 -28 -30 -36
-48 -13 -14 18 -14 18 -8 1 3 -10 6 -21 6 -23 0 -14 51 -1 60 15 8 16 3 27
-26 62 -31 38 -34 44 -20 57 14 14 18 14 37 -4 22 -19 22 -19 10 4 -13 25 -43
29 -61 7z"/>
<path d="M2215 115 c-9 -42 -14 -79 -11 -82 3 -4 6 1 6 10 0 24 56 23 69 0 15
-26 13 -7 -7 71 -10 38 -23 71 -29 73 -6 2 -18 -28 -28 -72z m44 3 c9 -36 8
-38 -15 -38 -21 0 -24 3 -18 28 11 49 17 67 20 57 2 -5 7 -27 13 -47z"/>
<path d="M2382 108 l2 -83 5 75 6 75 18 -57 c10 -32 22 -58 26 -58 4 0 16 26
27 58 l19 57 6 -75 5 -75 2 83 c3 111 -9 110 -53 -3 -6 -17 -10 -12 -24 29
-26 81 -41 71 -39 -26z"/>
<path d="M2551 153 c-22 -84 -29 -123 -20 -123 5 0 9 7 9 15 0 10 10 15 30 15
20 0 30 -5 30 -15 0 -8 4 -15 10 -15 5 0 8 6 6 13 -2 6 -12 42 -21 80 -9 37
-21 67 -26 67 -4 0 -13 -17 -18 -37z m33 -39 c6 -26 4 -32 -13 -37 -23 -6 -25
1 -15 52 8 37 19 30 28 -15z"/>
<path d="M2653 183 c-23 -9 -14 -46 18 -79 20 -20 29 -39 26 -48 -8 -20 -36
-21 -43 -1 -4 8 -10 15 -15 15 -6 0 -5 -9 1 -20 16 -31 58 -26 66 7 6 22 2 31
-25 54 -35 29 -39 61 -8 67 10 2 21 -5 26 -20 6 -13 10 -18 10 -11 2 36 -21
51 -56 36z"/>
<path d="M1127 30 c3 -11 7 -20 9 -20 2 0 4 9 4 20 0 11 -4 20 -9 20 -5 0 -7
-9 -4 -20z"/>
</g>
</svg>
